<svg xmlns="http://www.w3.org/2000/svg" viewBox="0 0 180 180" role="img" aria-label="Sales Arcaffo">
  <defs>
    <linearGradient id="bg" x1="0" y1="0" x2="1" y2="1">
      <stop offset="0" stop-color="#18181b"/>
      <stop offset="1" stop-color="#020204"/>
    </linearGradient>
    <linearGradient id="fg" x1="0" y1="0" x2="1" y2="1">
      <stop offset="0" stop-color="#ffffff"/>
      <stop offset="1" stop-color="#a5b4fc"/>
    </linearGradient>
  </defs>
  <rect width="180" height="180" rx="40" fill="url(#bg)"/>
  <rect x="14" y="14" width="152" height="152" rx="34" fill="none" stroke="#ffffff" stroke-opacity=".12" stroke-width="3"/>
  <path d="M119 58c-7-6-16-9-27-9-20 0-32 9-32 24 0 16 14 20 29 23 12 3 18 4 18 11 0 6-6 9-16 9-11 0-20-4-27-11l-10 14c8 9 21 14 36 14 21 0 34-10 34-26 0-17-15-21-31-25-11-2-17-4-17-9s5-8 14-8 16 3 22 8l7-15Z" fill="url(#fg)"/>
</svg>
