<svg xmlns="http://www.w3.org/2000/svg" viewBox="0 0 64 64" role="img" aria-label="Sales Arcaffo">
  <defs>
    <linearGradient id="bg" x1="0" y1="0" x2="1" y2="1">
      <stop offset="0" stop-color="#18181b"/>
      <stop offset="1" stop-color="#020204"/>
    </linearGradient>
    <linearGradient id="fg" x1="0" y1="0" x2="1" y2="1">
      <stop offset="0" stop-color="#ffffff"/>
      <stop offset="1" stop-color="#a5b4fc"/>
    </linearGradient>
  </defs>
  <rect width="64" height="64" rx="16" fill="url(#bg)"/>
  <rect x="5" y="5" width="54" height="54" rx="13" fill="none" stroke="#ffffff" stroke-opacity=".12"/>
  <path d="M42.5 20.7c-2.3-2.1-5.6-3.3-9.6-3.3-6.8 0-11.2 3.2-11.2 8.2 0 5.6 5.1 7 10.2 8 4.2.9 6.2 1.5 6.2 3.6 0 2-2 3.2-5.4 3.2-3.8 0-6.9-1.3-9.3-3.8l-3.4 4.6c2.9 3 7.3 4.8 12.5 4.8 7.1 0 11.8-3.5 11.8-8.9 0-5.9-5.2-7.3-10.6-8.4-4-.8-5.9-1.4-5.9-3.3 0-1.8 1.8-2.8 5-2.8 3.1 0 5.5.9 7.6 2.8l2.1-4.7Z" fill="url(#fg)"/>
</svg>
