<svg xmlns="http://www.w3.org/2000/svg" viewBox="0 0 192 192" role="img" aria-label="Sales Arcaffo">
  <defs>
    <linearGradient id="bg" x1="0" y1="0" x2="1" y2="1">
      <stop offset="0" stop-color="#18181b"/>
      <stop offset="1" stop-color="#020204"/>
    </linearGradient>
    <linearGradient id="fg" x1="0" y1="0" x2="1" y2="1">
      <stop offset="0" stop-color="#ffffff"/>
      <stop offset="1" stop-color="#a5b4fc"/>
    </linearGradient>
  </defs>
  <rect width="192" height="192" rx="44" fill="url(#bg)"/>
  <rect x="14" y="14" width="164" height="164" rx="36" fill="none" stroke="#ffffff" stroke-opacity=".12" stroke-width="3"/>
  <path d="M128 62c-7-6-17-10-29-10-21 0-34 10-34 25 0 17 15 21 31 24 13 3 19 5 19 11 0 7-6 10-17 10-12 0-21-4-29-11l-10 14c9 9 22 15 38 15 22 0 36-11 36-27 0-18-16-22-32-26-12-2-18-4-18-10 0-5 5-8 15-8 9 0 17 3 23 9l7-16Z" fill="url(#fg)"/>
</svg>
